<svg width="138" height="76" viewBox="0 0 138 76" fill="none" xmlns="http://www.w3.org/2000/svg">
<path d="M23.392 20.752C23.392 22.544 24.288 23.952 26.08 24.976C27.9573 26 30.8587 27.1093 34.784 28.304C39.4773 29.84 43.3173 31.3333 46.304 32.784C49.376 34.2347 52.0213 36.496 54.24 39.568C56.544 42.64 57.696 46.6507 57.696 51.6C57.696 67.472 47.3707 75.408 26.72 75.408C23.3067 75.408 19.1253 75.1093 14.176 74.512C9.312 73.9147 4.87467 73.1467 0.864 72.208C1.03467 70.416 1.376 67.8133 1.888 64.4C2.48533 60.9013 3.04 58.2987 3.552 56.592C6.53867 57.0187 11.0187 57.5307 16.992 58.128C23.0507 58.7253 27.616 59.024 30.688 59.024C32.48 59.024 33.5467 58.896 33.888 58.64C34.4 58.2987 34.784 57.744 35.04 56.976C35.3813 56.1227 35.552 55.3973 35.552 54.8C35.552 53.0933 34.7413 51.8133 33.12 50.96C31.4987 50.0213 28.7253 48.912 24.8 47.632C20.1067 46.1813 16.224 44.688 13.152 43.152C10.08 41.616 7.392 39.2267 5.088 35.984C2.784 32.7413 1.632 28.4747 1.632 23.184C1.632 19.4293 2.48533 15.76 4.192 12.176C5.89867 8.50666 7.648 6.032 9.44 4.752C10.8053 3.81333 13.6213 2.91733 17.888 2.064C22.1547 1.21066 26.1653 0.783997 29.92 0.783997C39.4773 0.783997 47.2853 1.68 53.344 3.472C53.2587 5.17867 52.96 7.52533 52.448 10.512C52.0213 13.4987 51.552 16.2293 51.04 18.704L48.096 18.576C37.0027 17.808 29.92 17.424 26.848 17.424C25.568 17.424 24.8427 17.4667 24.672 17.552C24.3307 17.7227 24.032 18.1067 23.776 18.704C23.52 19.3013 23.392 19.984 23.392 20.752ZM89.651 44.56V74H68.275V1.03999H89.907L109.235 30.48C112.136 34.832 114.355 38.5013 115.891 41.488H116.275V29.2V1.03999H137.523V74H115.763L95.923 43.28L90.163 34.576H89.779L89.651 44.56Z" fill="url(#paint0_linear_1_2)"/>
<defs>
<linearGradient id="paint0_linear_1_2" x1="70" y1="-52" x2="70" y2="149" gradientUnits="userSpaceOnUse">
<stop stop-color="#E0C3FC"/>
<stop offset="1" stop-color="#8EC5FC"/>
</linearGradient>
</defs>
</svg>
