<svg xmlns="http://www.w3.org/2000/svg" version="1.1" xmlns:xlink="http://www.w3.org/1999/xlink" xmlns:svgjs="http://svgjs.dev/svgjs" width="1920" height="1080" preserveAspectRatio="none" viewBox="0 0 1920 1080"><g mask="url(&quot;#SvgjsMask1046&quot;)" fill="none"><rect width="1920" height="1080" x="0" y="0" fill="rgba(30, 30, 30, 1)"></rect><path d="M0 62.88C7.38 24.69 15.34 8.58 52.16 0C150.34 -22.86 161.08 0 270 0C405 0 405 0 540 0C675 0 675 0 810 0C945 0 945 0 1080 0C1195.14 0 1280.2 -60.18 1310.29 0C1347.7 74.82 1202.85 150.23 1215 270C1222.71 345.98 1278.27 391.5 1350 391.5C1435.77 391.5 1509.81 354.88 1530 270C1556.36 159.13 1415.39 83.14 1443.1 0C1460.39 -51.86 1531.55 0 1620 0C1755 0 1755 0 1890 0C2025 0 2092.5 -67.5 2160 0C2227.5 67.5 2160 135 2160 270C2160 405 2160 405 2160 540C2160 585 2190.92 603.96 2160 630C2055.92 717.65 2021.42 693.35 1890 767.37C1861.63 783.35 1840.41 789.83 1840.41 810C1840.41 828.76 1869.78 822.7 1890 845.22C1991 957.7 2082.86 1008.19 2082.86 1080C2082.86 1125.58 1986.43 1080 1890 1080C1755 1080 1755 1080 1620 1080C1525 1080 1499.53 1121.21 1430 1080C1364.53 1041.21 1390.61 920 1350 920C1309.07 920 1333.2 1040.72 1266.92 1080C1198.2 1120.72 1173.46 1080 1080 1080C990 1080 961.64 1124.38 900 1080C826.64 1027.18 849.18 885.6 810 885.6C772.62 885.6 813.97 1031.69 746.88 1080C678.97 1128.89 643.44 1080 540 1080C405 1080 405 1080 270 1080C135 1080 67.5 1147.5 0 1080C-67.5 1012.5 0 945 0 810C0 697.5 -30.15 679.21 0 585C13.05 544.21 86.4 560.17 86.4 540C86.4 520.79 12.18 544.31 0 506.25C-31.02 409.31 0 388.13 0 270C0 166.44 -18.7 159.69 0 62.88" stroke="rgba(66, 68, 90, 1)" stroke-width="2"></path><path d="M270 657.69C225.42 657.69 174.19 733.28 174.19 810C174.19 889.71 225.51 970.54 270 970.54C312.49 970.54 348.16 889.86 348.16 810C348.16 733.43 312.41 657.69 270 657.69" stroke="rgba(255, 255, 255, 0.46)" stroke-width="2"></path><path d="M0 155.34C41.09 69.25 49.42 45.71 128.86 0C184.42 -31.96 199.43 0 270 0C378.94 0 447.24 -60.01 487.89 0C538.69 74.99 434.96 147.07 452.9 270C461.02 325.62 501.68 357.1 540 357.1C571.7 357.1 556.52 304.72 592.94 270C691.52 176.02 703.17 186.9 810 99.69C868.54 51.9 857.3 24.51 923.68 0C992.3 -25.34 1001.84 0 1080 0C1145.51 0 1211.03 -37.47 1211.03 0C1211.03 73.9 1148.82 113.7 1080 222.75C1063.62 248.7 1040.63 246.95 1040.63 270C1040.63 291.58 1058.95 292.38 1080 312C1203.76 427.38 1290.28 405.61 1330.24 540C1364.31 654.61 1276.66 674.11 1228.06 810C1180.1 944.11 1198.79 967.55 1137.12 1080C1124.76 1102.55 1108.56 1080 1080 1080C1052.5 1080 1035.75 1102.13 1025 1080C970.18 967.13 990.52 943.88 948.86 810C906.5 673.88 913.6 668.11 856.96 540C844.17 511.07 835.91 495.92 810 495.92C775.19 495.92 748.02 502.05 735.52 540C696.32 659.09 725.58 675.64 706.6 810C687.43 945.64 717.27 985.92 659.22 1080C633.97 1120.92 599.61 1080 540 1080C435.68 1080 352.92 1136.5 331.36 1080C301.4 1001.5 433.66 946.06 436.97 810C440.22 676.06 405.46 665.81 344.48 540C321.97 493.57 317.37 484.66 270 465.52C145.13 415.05 91.77 467.24 0 400.78C-43.23 369.48 0 335.39 0 270C0 212.67 -23.34 204.25 0 155.34" stroke="rgba(255, 255, 255, 0.46)" stroke-width="2"></path><path d="M1686.46 270C1758.68 160.7 1775.62 158.4 1890 88.77C1997.39 23.4 2009.17 39.73 2130 0C2144.17 -4.66 2154 -9 2160 0C2169 13.5 2165.11 23.2 2160 45C2133.47 158.2 2121.28 155.94 2096.72 270C2067.99 403.44 2113.57 429.73 2053.42 540C2010.21 619.2 1967.68 589.16 1890 648.95C1792.29 724.16 1702.65 733.81 1702.65 810C1702.65 880.86 1805.36 866.83 1890 943.04C1955.29 1001.83 2002.5 1038.11 2002.5 1080C2002.5 1106.59 1946.25 1080 1890 1080C1755 1080 1755 1080 1620 1080C1587.5 1080 1568.15 1105.43 1555 1080C1498.32 970.43 1498.16 947.48 1480.34 810C1463.16 677.48 1439.19 642.55 1485 540C1509.02 486.24 1582.32 547.87 1620 497.37C1683.05 412.87 1623.68 365 1686.46 270" stroke="rgba(66, 68, 90, 1)" stroke-width="2"></path><path d="M0 725.63C18.24 725.63 65.32 761.6 65.32 810C65.32 916.28 16.66 1035 0 1035C-16 1035 0 922.5 0 810C0 767.82 -14.42 725.63 0 725.63" stroke="rgba(255, 255, 255, 0.46)" stroke-width="2"></path><path d="M0 247.81C71.32 247.81 162 258.14 162 270C162 281.89 70.17 295.31 0 295.31C-10.83 295.31 0 282.65 0 270C0 258.9 -9.68 247.81 0 247.81" stroke="rgba(255, 255, 255, 0.46)" stroke-width="2"></path><path d="M270 226.8C230.03 226.8 205.57 89.06 205.57 0C205.57 -24.34 237.78 0 270 0C319.74 0 369.47 -32.5 369.47 0C369.47 80.9 311.98 226.8 270 226.8" stroke="rgba(255, 255, 255, 0.46)" stroke-width="2"></path><path d="M725.29 270C725.29 233.8 767.16 203.54 810 203.54C854.51 203.54 900 233.64 900 270C900 310.95 854.33 358.16 810 358.16C766.98 358.16 725.29 311.11 725.29 270" stroke="rgba(66, 68, 90, 1)" stroke-width="2"></path><path d="M1080 54C1062.14 54 1042.11 17.15 1042.11 0C1042.11 -9.85 1061.05 0 1080 0C1095.88 0 1111.76 -9.08 1111.76 0C1111.76 17.92 1096.96 54 1080 54" stroke="rgba(66, 68, 90, 1)" stroke-width="2"></path><path d="M1790.31 270C1790.31 213.87 1839.98 181.23 1890 181.23C1940.45 181.23 1991.25 213.63 1991.25 270C1991.25 382.63 1940.29 519.23 1890 519.23C1839.82 519.23 1790.31 382.87 1790.31 270" stroke="rgba(66, 68, 90, 1)" stroke-width="2"></path><path d="M1003.7 540C1003.7 494.33 1040.73 462 1080 462C1121.68 462 1165.61 493.24 1165.61 540C1165.61 615.81 1120.92 707.14 1080 707.14C1039.96 707.14 1003.7 616.9 1003.7 540" stroke="rgba(255, 255, 255, 0.46)" stroke-width="2"></path><path d="M525.79 810C534.96 742.77 530.74 675 540 675C549.34 675 557.67 741.88 562.98 810C573.45 944.38 581.85 959.12 571.56 1080C570.36 1094.12 555.78 1080 540 1080C512.38 1080 485.97 1102.71 484.77 1080C478.86 967.71 507.34 945.27 525.79 810" stroke="rgba(66, 68, 90, 1)" stroke-width="2"></path><path d="M1767.27 1080C1767.27 1069.98 1834.42 1040.87 1890 1040.87C1911.85 1040.87 1922.14 1068.03 1922.14 1080C1922.14 1087.6 1906.07 1080 1890 1080C1828.64 1080 1767.27 1089.55 1767.27 1080" stroke="rgba(66, 68, 90, 1)" stroke-width="2"></path></g><defs><mask id="SvgjsMask1046"><rect width="1920" height="1080" fill="#ffffff"></rect></mask></defs></svg>